# xmcd CD database file
#
# Track frame offsets:
#	150
#	21835
#	44785
#	69312
#	101712
#	131940
#	152945
#	183537
#	209935
#	239192
#
# Disc length: 3547 seconds
#
# Revision: 2
# Processed by: cddbd v1.5.1PL0 Copyright (c) Steve Scherf et al.
# Submitted via: CDex 1.51
#
DISCID=a60dd90a
DTITLE=Jim Hall - Ballad Essentials
DYEAR=1900
DGENRE=Jazz
TTITLE0=Prelude To A Kiss
TTITLE1=I See Nothing To Laugh About
TTITLE2=All Across The City
TTITLE3=Skylark
TTITLE4=Circles
TTITLE5=I Can't Get Started
TTITLE6=Embraceable You
TTITLE7=Emily
TTITLE8=Beija-Flor
TTITLE9=Poor Butterfly
EXTD=
EXTT0=
EXTT1=
EXTT2=
EXTT3=
EXTT4=
EXTT5=
EXTT6=
EXTT7=
EXTT8=
EXTT9=
PLAYORDER=
